<?xml version="1.0" encoding="UTF-8" standalone="no"?>
<svg
   viewBox="0 0 24 24"
   width="24"
   height="24"
   version="1.1"
   id="svg4"
   sodipodi:docname="audio-volume-low.svg"
   inkscape:version="1.3 (0e150ed6c4, 2023-07-21)"
   inkscape:export-filename="audio-volume-low.png"
   inkscape:export-xdpi="128"
   inkscape:export-ydpi="128"
   xmlns:inkscape="http://www.inkscape.org/namespaces/inkscape"
   xmlns:sodipodi="http://sodipodi.sourceforge.net/DTD/sodipodi-0.dtd"
   xmlns="http://www.w3.org/2000/svg"
   xmlns:svg="http://www.w3.org/2000/svg">
  <defs
     id="defs4" />
  <sodipodi:namedview
     id="namedview4"
     pagecolor="#ffffff"
     bordercolor="#000000"
     borderopacity="0.25"
     inkscape:showpageshadow="2"
     inkscape:pageopacity="0.0"
     inkscape:pagecheckerboard="0"
     inkscape:deskcolor="#d1d1d1"
     inkscape:zoom="49.125"
     inkscape:cx="12.010178"
     inkscape:cy="12"
     inkscape:window-width="1400"
     inkscape:window-height="1237"
     inkscape:window-x="1156"
     inkscape:window-y="129"
     inkscape:window-maximized="0"
     inkscape:current-layer="svg4" />
  <style
     id="current-color-scheme"
     type="text/css">&#10;        .ColorScheme-Text {&#10;            color:#232629;&#10;        }&#10;    </style>
  <path
     d="m 14.865234,4.5371094 -0.24414,0.9765625 A 7,7 0 0 1 19,12 7,7 0 0 1 14.619141,18.478516 l 0.24414,0.974609 A 8,8 0 0 0 20,12 8,8 0 0 0 14.865234,4.5371094 Z M 15.324219,8.28125 14.785156,9.1425781 A 4,4 0 0 1 16,12 4,4 0 0 1 14.789062,14.861328 l 0.539063,0.863281 A 5,5 0 0 0 17,12 5,5 0 0 0 15.324219,8.28125 Z"
     fill-opacity="0.35"
     id="path1"
     style="color:#232629;fill:#999999" />
  <path
     d="m 4,9 h 2 v 6 H 4 Z"
     fill-rule="evenodd"
     id="path2"
     style="color:#232629;fill:#ffffff" />
  <path
     d="m 7,15 5,5 h 1 V 4 H 12 L 7,9 Z"
     id="path3"
     style="color:#232629;fill:#ffffff" />
</svg>
