<?xml version="1.0" encoding="UTF-8" standalone="no"?>
<svg
   viewBox="0 0 24 24"
   width="24"
   height="24"
   version="1.1"
   id="svg5"
   sodipodi:docname="audio-volume-high.svg"
   inkscape:version="1.3 (0e150ed6c4, 2023-07-21)"
   inkscape:export-filename="audio-volume-high.png"
   inkscape:export-xdpi="128"
   inkscape:export-ydpi="128"
   xmlns:inkscape="http://www.inkscape.org/namespaces/inkscape"
   xmlns:sodipodi="http://sodipodi.sourceforge.net/DTD/sodipodi-0.dtd"
   xmlns="http://www.w3.org/2000/svg"
   xmlns:svg="http://www.w3.org/2000/svg">
  <defs
     id="defs5" />
  <sodipodi:namedview
     id="namedview5"
     pagecolor="#ffffff"
     bordercolor="#000000"
     borderopacity="0.25"
     inkscape:showpageshadow="2"
     inkscape:pageopacity="0.0"
     inkscape:pagecheckerboard="0"
     inkscape:deskcolor="#d1d1d1"
     inkscape:zoom="49.125"
     inkscape:cx="12.010178"
     inkscape:cy="12"
     inkscape:window-width="1400"
     inkscape:window-height="1237"
     inkscape:window-x="846"
     inkscape:window-y="68"
     inkscape:window-maximized="0"
     inkscape:current-layer="svg5" />
  <style
     id="current-color-scheme"
     type="text/css">&#10;        .ColorScheme-Text {&#10;            color:#232629;&#10;        }&#10;    </style>
  <g
     transform="translate(1,1)"
     id="g5">
    <g
       class="ColorScheme-Text"
       fill="currentColor"
       id="g4">
      <path
         d="m14.324219 7.28125-.539063.8613281a4 4 0 0 1 1.214844 2.8574219 4 4 0 0 1 -1.210938 2.861328l.539063.863281a5 5 0 0 0 1.671875-3.724609 5 5 0 0 0 -1.675781-3.71875z"
         id="path1" />
      <path
         d="m13.865234 3.5371094-.24414.9765625a7 7 0 0 1 4.378906 6.4863281 7 7 0 0 1 -4.380859 6.478516l.24414.974609a8 8 0 0 0 5.136719-7.453125 8 8 0 0 0 -5.134766-7.4628906z"
         id="path2" />
      <path
         d="m3 8h2v6h-2z"
         fill-rule="evenodd"
         id="path3" />
      <path
         d="m6 14 5 5h1v-16h-1l-5 5z"
         id="path4" />
    </g>
  </g>
  <path
     style="fill:#ffffff;stroke-width:0.0203562"
     d="M 4,12 V 9.0178117 H 4.9974555 5.9949109 V 12 14.982188 H 4.9974555 4 Z"
     id="path5" />
  <path
     style="fill:#ffffff;stroke-width:0.0203562"
     d="M 9.5114194,17.491063 7.0127226,14.992305 V 12 9.0076955 L 9.5114194,6.5089368 12.010116,4.0101781 h 0.49367 0.493669 V 12 19.989822 h -0.493669 -0.49367 z"
     id="path6" />
  <path
     style="fill:#ffffff;stroke-width:0.0203562"
     d="m 15.063534,15.276828 -0.25855,-0.417829 0.145174,-0.152831 c 0.754782,-0.794589 1.1513,-1.972541 1.038695,-3.085691 -0.08926,-0.882353 -0.473831,-1.7282738 -1.073939,-2.3622725 -0.07096,-0.074972 -0.104277,-0.1252445 -0.09442,-0.1424937 0.0084,-0.014659 0.124712,-0.2028156 0.258532,-0.4181263 l 0.243308,-0.391474 0.0918,0.075224 c 0.124029,0.1016324 0.407607,0.4206236 0.583913,0.6568331 1.329812,1.7816354 1.312948,4.2188154 -0.04143,5.9870744 -0.155929,0.203579 -0.586323,0.669414 -0.618485,0.669414 -0.0088,0 -0.132395,-0.188023 -0.274597,-0.417828 z"
     id="path7" />
  <path
     style="fill:#ffffff;stroke-width:0.0203562"
     d="m 14.85137,19.362688 c -0.01089,-0.04134 -0.06486,-0.255501 -0.119933,-0.475923 l -0.100141,-0.400768 0.175446,-0.07513 c 0.776495,-0.332494 1.519702,-0.840077 2.147891,-1.466931 1.171621,-1.16913 1.877572,-2.689363 2.029791,-4.371062 0.02969,-0.328024 0.01174,-1.15903 -0.03172,-1.468552 -0.0906,-0.645288 -0.252258,-1.2463116 -0.49002,-1.8218793 C 18.301404,8.8920222 17.981225,8.3193883 17.711644,7.9392256 17.364275,7.4493663 16.857721,6.9118156 16.393565,6.5404945 15.929817,6.1694989 15.330417,5.8044553 14.84682,5.5985034 l -0.213828,-0.091064 0.11658,-0.4649972 c 0.06412,-0.2557486 0.121321,-0.469739 0.127116,-0.4755344 0.03182,-0.031825 0.866602,0.3686439 1.235271,0.5925985 2.176523,1.3221676 3.572881,3.5294085 3.836877,6.0650007 0.04073,0.391163 0.04108,1.128234 7.32e-4,1.528674 -0.164931,1.636917 -0.792788,3.120871 -1.860337,4.396946 -0.19679,0.23523 -0.693122,0.731623 -0.928926,0.92904 -0.637458,0.533687 -1.359998,0.974884 -2.091136,1.276889 l -0.198006,0.08179 z"
     id="path8" />
</svg>
