<?xml version="1.0" encoding="UTF-8" standalone="no"?>
<svg
   viewBox="0 0 24 24"
   width="24"
   height="24"
   version="1.1"
   id="svg5"
   sodipodi:docname="audio-volume-medium.svg"
   inkscape:version="1.3 (0e150ed6c4, 2023-07-21)"
   inkscape:export-filename="audio-volume-medium.png"
   inkscape:export-xdpi="128"
   inkscape:export-ydpi="128"
   xmlns:inkscape="http://www.inkscape.org/namespaces/inkscape"
   xmlns:sodipodi="http://sodipodi.sourceforge.net/DTD/sodipodi-0.dtd"
   xmlns="http://www.w3.org/2000/svg"
   xmlns:svg="http://www.w3.org/2000/svg">
  <defs
     id="defs5" />
  <sodipodi:namedview
     id="namedview5"
     pagecolor="#ffffff"
     bordercolor="#000000"
     borderopacity="0.25"
     inkscape:showpageshadow="2"
     inkscape:pageopacity="0.0"
     inkscape:pagecheckerboard="0"
     inkscape:deskcolor="#d1d1d1"
     inkscape:zoom="49.125"
     inkscape:cx="12.010178"
     inkscape:cy="12"
     inkscape:window-width="1400"
     inkscape:window-height="1237"
     inkscape:window-x="324"
     inkscape:window-y="89"
     inkscape:window-maximized="0"
     inkscape:current-layer="svg5" />
  <style
     id="current-color-scheme"
     type="text/css">&#10;        .ColorScheme-Text {&#10;            color:#232629;&#10;        }&#10;    </style>
  <g
     transform="translate(1,1)"
     id="g5">
    <g
       class="ColorScheme-Text"
       fill="currentColor"
       id="g4">
      <path
         d="m14.324219 7.28125-.539063.8613281a4 4 0 0 1 1.214844 2.8574219 4 4 0 0 1 -1.210938 2.861328l.539063.863281a5 5 0 0 0 1.671875-3.724609 5 5 0 0 0 -1.675781-3.71875z"
         id="path1" />
      <path
         d="m13.865234 3.5371094-.24414.9765625a7 7 0 0 1 4.378906 6.4863281 7 7 0 0 1 -4.380859 6.478516l.24414.974609a8 8 0 0 0 5.136719-7.453125 8 8 0 0 0 -5.134766-7.4628906z"
         fill-opacity=".35"
         id="path2" />
      <path
         d="m3.0000005 8h2v6h-2z"
         fill-rule="evenodd"
         id="path3" />
      <path
         d="m6.0000005 14 5.0000005 5h.999999v-16h-1l-4.9999995 5z"
         id="path4" />
    </g>
  </g>
  <path
     style="fill:#ffffff;stroke-width:0.0203562"
     d="M 4,12 V 9.0178117 H 4.9974555 5.9949109 V 12 14.982188 H 4.9974555 4 Z"
     id="path5" />
  <path
     style="fill:#ffffff;stroke-width:0.0203562"
     d="M 9.5114194,17.491063 7.0127226,14.992305 V 12 9.0076955 L 9.5114194,6.5089368 12.010116,4.0101781 h 0.49367 0.493669 V 12 19.989822 h -0.493669 -0.49367 z"
     id="path6" />
  <path
     style="fill:#ffffff;stroke-width:0.0203562"
     d="m 15.063534,15.276828 -0.25855,-0.417829 0.145174,-0.152831 c 0.754782,-0.794589 1.1513,-1.972541 1.038695,-3.085691 -0.08926,-0.882353 -0.473831,-1.7282738 -1.073939,-2.3622725 -0.07096,-0.074972 -0.104277,-0.1252445 -0.09442,-0.1424937 0.0084,-0.014659 0.124712,-0.2028156 0.258532,-0.4181263 l 0.243308,-0.391474 0.0918,0.075224 c 0.124029,0.1016324 0.407607,0.4206236 0.583913,0.6568331 1.329812,1.7816354 1.312948,4.2188154 -0.04143,5.9870744 -0.155929,0.203579 -0.586323,0.669414 -0.618485,0.669414 -0.0088,0 -0.132395,-0.188023 -0.274597,-0.417828 z"
     id="path7" />
  <path
     style="fill:#999999;stroke-width:0.0203562"
     d="m 14.851675,19.363819 c -0.01105,-0.04196 -0.06504,-0.256159 -0.119974,-0.476002 l -0.09988,-0.399715 0.276963,-0.124428 c 0.488634,-0.219523 1.038158,-0.557377 1.487374,-0.914455 0.401004,-0.318755 1.009364,-0.964859 1.316641,-1.398328 1.146704,-1.617632 1.558831,-3.667554 1.123395,-5.587787 C 18.349982,8.3189362 16.892836,6.5250078 14.909878,5.6293158 L 14.634005,5.5047054 14.74997,5.0411832 c 0.06378,-0.2549372 0.120351,-0.4679079 0.125711,-0.4732684 0.01351,-0.013512 0.2655,0.08845 0.548557,0.2219646 0.892243,0.4208591 1.768178,1.0643279 2.430119,1.7851842 1.200575,1.3074298 1.910632,2.8836542 2.094479,4.6494434 0.03633,0.34889 0.04181,1.109213 0.01044,1.447249 -0.222029,2.392396 -1.44509,4.500094 -3.409653,5.875849 -0.384009,0.268916 -0.987373,0.605082 -1.374045,0.765553 -0.08397,0.03485 -0.186676,0.07767 -0.228237,0.09515 l -0.07556,0.03179 z"
     id="path8" />
</svg>
