<?xml version="1.0" encoding="UTF-8" standalone="no"?>
<svg
   viewBox="0 0 24 24"
   width="24"
   height="24"
   version="1.1"
   id="svg8"
   sodipodi:docname="audio-volume-muted.svg"
   inkscape:version="1.3 (0e150ed6c4, 2023-07-21)"
   inkscape:export-filename="audio-volume-muted.png"
   inkscape:export-xdpi="128"
   inkscape:export-ydpi="128"
   xmlns:inkscape="http://www.inkscape.org/namespaces/inkscape"
   xmlns:sodipodi="http://sodipodi.sourceforge.net/DTD/sodipodi-0.dtd"
   xmlns="http://www.w3.org/2000/svg"
   xmlns:svg="http://www.w3.org/2000/svg">
  <defs
     id="defs8" />
  <sodipodi:namedview
     id="namedview8"
     pagecolor="#ffffff"
     bordercolor="#000000"
     borderopacity="0.25"
     inkscape:showpageshadow="2"
     inkscape:pageopacity="0.0"
     inkscape:pagecheckerboard="0"
     inkscape:deskcolor="#d1d1d1"
     inkscape:zoom="27.148327"
     inkscape:cx="8.4719769"
     inkscape:cy="10.774145"
     inkscape:window-width="1400"
     inkscape:window-height="1237"
     inkscape:window-x="1082"
     inkscape:window-y="142"
     inkscape:window-maximized="0"
     inkscape:current-layer="svg8" />
  <style
     id="current-color-scheme"
     type="text/css">&#10;        .ColorScheme-Text {&#10;            color:#232629;&#10;        }&#10;        .ColorScheme-NegativeText {&#10;            color:#da4453;&#10;        }&#10;    </style>
  <g
     id="g8"
     style="fill:#ff5555">
    <path
       d="m 4,9 v 6 H 6 V 9 Z"
       id="path1"
       style="color:#232629;fill:#ff5555" />
    <path
       d="m 7,9 v 6 l 5,5 h 1 v -5 z"
       id="path2"
       style="color:#232629;fill:#ff5555" />
    <path
       d="m 12,4 -3,3 4,4 V 4 Z"
       id="path3"
       style="color:#232629;fill:#ff5555" />
    <g
       opacity="0.35"
       id="g6"
       transform="translate(1,1)"
       style="color:#232629;fill:#ff5555">
      <path
         d="m 14.832031,16.832031 a 7,7 0 0 1 -1.21289,0.646485 l 0.24414,0.974609 a 8,8 0 0 0 1.681641,-0.908203 z"
         id="path4"
         style="fill:#ff5555" />
      <path
         d="M 14.324219,7.28125 13.785156,8.1425781 A 4,4 0 0 1 15,11 4,4 0 0 1 14.628906,12.628906 l 0.75,0.75 A 5,5 0 0 0 16,11 5,5 0 0 0 14.324219,7.28125 Z"
         id="path5"
         style="fill:#ff5555" />
      <path
         d="m 13.865234,3.5371094 -0.24414,0.9765625 A 7,7 0 0 1 18,11 7,7 0 0 1 16.833984,14.833984 l 0.716797,0.716797 A 8,8 0 0 0 19,11 8,8 0 0 0 13.865234,3.5371094 Z"
         id="path6"
         style="fill:#ff5555" />
    </g>
    <path
       d="M 4,4.7071068 4.7071067,4 20,19.292893 19.292893,20 Z"
       class="ColorScheme-NegativeText"
       fill="currentColor"
       id="path7"
       style="fill:#ff5555" />
  </g>
</svg>
