<?xml version="1.0" encoding="UTF-8" standalone="no"?>
<svg
   width="16"
   height="16"
   version="1.1"
   id="svg2"
   sodipodi:docname="network-wired-error-symbolic.svg"
   inkscape:version="1.3.2 (091e20ef0f, 2023-11-25)"
   xmlns:inkscape="http://www.inkscape.org/namespaces/inkscape"
   xmlns:sodipodi="http://sodipodi.sourceforge.net/DTD/sodipodi-0.dtd"
   xmlns="http://www.w3.org/2000/svg"
   xmlns:svg="http://www.w3.org/2000/svg">
  <defs
     id="defs2" />
  <sodipodi:namedview
     id="namedview2"
     pagecolor="#ffffff"
     bordercolor="#000000"
     borderopacity="0.25"
     inkscape:showpageshadow="2"
     inkscape:pageopacity="0.0"
     inkscape:pagecheckerboard="0"
     inkscape:deskcolor="#d1d1d1"
     inkscape:zoom="40.75703"
     inkscape:cx="6.0357685"
     inkscape:cy="7.0785334"
     inkscape:window-width="1400"
     inkscape:window-height="1237"
     inkscape:window-x="746"
     inkscape:window-y="75"
     inkscape:window-maximized="0"
     inkscape:current-layer="svg2" />
  <path
     style="fill:#444444"
     d="M 1 1 C 1 1 0 1 0 2 L 0 12 C 0 13 1 13 1 13 L 3 13 L 4 14 L 11 14 L 11 11 L 10 12 L 5 12 L 4 11 L 2 11 L 2 3 L 3 3 L 3 5 L 4 5 L 4 3 L 5 3 L 5 5 L 6 5 L 6 3 L 7 3 L 7 5 L 8 5 L 8 3 L 9 3 L 9 5 L 10 5 L 10 3 L 11 3 L 11 5 L 12 5 L 12 3 L 13 3 L 13 5 L 15 5 L 15 2 C 15 1 14 1 14 1 L 1 1 z"
     id="path1" />
  <path
     style="fill:#f44336"
     class="error"
     d="m 12,6 v 4 l 0.25,2 h 1.5 L 14,10 V 6 Z m 0,7 v 2 h 2 v -2 z"
     id="path2" />
  <path
     style="fill:#9e9e9e;fill-opacity:1;stroke-width:0.0135593"
     d="m 3.5055383,13.491979 -0.501104,-0.501241 -1.0920476,-0.0042 c -1.09116814,-0.0042 -1.09212963,-0.0042 -1.19374263,-0.035 C 0.52902308,12.894089 0.39779836,12.818926 0.27719749,12.698718 0.15070351,12.572636 0.08464047,12.457984 0.0377858,12.28322 L 0.00729504,12.169492 0.00298868,7.1322034 C 8.735322e-5,3.7384207 0.00326756,2.0385177 0.01273591,1.9220585 0.03023347,1.7068416 0.07422361,1.5654119 0.16664809,1.4272258 0.3139085,1.2070532 0.56797824,1.0627918 0.88813559,1.0175635 0.9678981,1.0062956 2.7354852,1.0033155 7.5661017,1.0063049 l 6.5694913,0.00407 0.115254,0.030759 c 0.370642,0.098916 0.613184,0.3259236 0.708661,0.663271 l 0.02994,0.1057693 0.004,1.5898305 0.004,1.5898305 H 14.000427 13.00339 V 3.9932203 2.9966102 H 12.501695 12 V 3.9932203 4.9898305 H 11.505085 11.010169 V 3.9932203 2.9966102 H 10.501695 9.9932203 V 3.9932203 4.9898305 H 9.4983051 9.0033898 V 3.9932203 2.9966102 H 8.5016949 8 V 3.9932203 4.9898305 H 7.5050847 7.0101695 V 3.9932203 2.9966102 H 6.5016949 5.9932203 V 3.9932203 4.9898305 H 5.4983051 5.0033898 V 3.9932203 2.9966102 H 4.5016949 4 V 3.9932203 4.9898305 H 3.5050847 3.0101695 V 3.9932203 2.9966102 H 2.5016949 1.9932203 V 7.0033898 11.010169 H 2.99329 3.9933596 L 4.4881356,11.505085 4.9829116,12 h 2.515255 2.5152554 l 0.491594,-0.491456 0.491594,-0.491456 v 1.488066 1.488066 H 7.5016262 4.0066422 Z"
     id="path3" />
  <path
     style="fill:#ff8080;fill-opacity:1;stroke-width:0.0135593"
     d="m 12.251986,11.949153 c -0.0044,-0.02797 -0.06292,-0.491405 -0.130006,-1.029865 L 12,9.9402713 V 7.9735254 6.0067797 h 0.99661 0.99661 l 5.91e-4,1.9830508 5.9e-4,1.9830509 L 13.86854,10.986441 13.742678,12 h -0.741333 -0.741334 z"
     id="path4" />
  <path
     style="fill:#ff8080;fill-opacity:1;stroke-width:0.0135593"
     d="m 12,14 v -0.99661 h 0.99661 0.99661 V 14 14.99661 H 12.99661 12 Z"
     id="path5" />
</svg>
