<?xml version="1.0" encoding="UTF-8" standalone="no"?>
<svg
   width="16"
   height="16"
   version="1.1"
   id="svg2"
   sodipodi:docname="network-wired-offline.svg"
   inkscape:version="1.3.2 (091e20ef0f, 2023-11-25)"
   inkscape:export-filename="../network-wired-offline.png"
   inkscape:export-xdpi="236.31"
   inkscape:export-ydpi="236.31"
   xmlns:inkscape="http://www.inkscape.org/namespaces/inkscape"
   xmlns:sodipodi="http://sodipodi.sourceforge.net/DTD/sodipodi-0.dtd"
   xmlns="http://www.w3.org/2000/svg"
   xmlns:svg="http://www.w3.org/2000/svg">
  <defs
     id="defs2" />
  <sodipodi:namedview
     id="namedview2"
     pagecolor="#ffffff"
     bordercolor="#000000"
     borderopacity="0.25"
     inkscape:showpageshadow="2"
     inkscape:pageopacity="0.0"
     inkscape:pagecheckerboard="0"
     inkscape:deskcolor="#d1d1d1"
     inkscape:zoom="73.75"
     inkscape:cx="8"
     inkscape:cy="8.5830508"
     inkscape:window-width="2560"
     inkscape:window-height="1378"
     inkscape:window-x="0"
     inkscape:window-y="26"
     inkscape:window-maximized="1"
     inkscape:current-layer="svg2" />
  <path
     style="opacity:0.8;fill:#ffffff;fill-opacity:1"
     d="m 1.5,1.5 c 0,0 -1,0 -1,1 v 10 c 0,1 1,1 1,1 h 2 l 1,1 h 6 v -2 h -5 l -1,-1 h -2 v -8 h 1 v 2 h 1 v -2 h 1 v 2 h 1 v -2 h 1 v 2 h 1 v -2 h 1 v 2 h 1 v -2 h 1 v 2 h 1 v -2 h 1 v 6 h 2 v -7 c 0,-1 -1,-1 -1,-1 z"
     id="path1" />
  <path
     style="fill:#ff5555;fill-opacity:1"
     d="M 10.496612,9.4966102 V 10.49661 c 0,0.27 0.1,0.53 0.28,0.72 l 0.78,0.78 -0.78,0.78 c -0.18,0.18 -0.28,0.44 -0.28,0.72 v 1 h 1 c 0.28,0 0.54,-0.1 0.72,-0.28 l 0.78,-0.79 0.78,0.79 c 0.18,0.18 0.44,0.28 0.72,0.28 h 1 v -1 c 0,-0.28 -0.1,-0.54 -0.28,-0.72 l -0.78,-0.78 0.78,-0.78 c 0.18,-0.19 0.28,-0.45 0.28,-0.72 V 9.4966102 h -1 c -0.28,0 -0.54,0.1 -0.72,0.28 l -0.78,0.7799998 -0.78,-0.7799998 c -0.18,-0.18 -0.44,-0.28 -0.72,-0.28 z"
     id="path2" />
</svg>
